<?xml version="1.0" encoding="UTF-8"?>
<svg id="Layer_1" data-name="Layer 1" xmlns="http://www.w3.org/2000/svg" xmlns:xlink="http://www.w3.org/1999/xlink" viewBox="0 0 900 900">
  <defs>
    <style>
      .cls-1 {
        fill: #fff;
      }

      .cls-2 {
        fill: url(#linear-gradient);
      }
    </style>
    <linearGradient id="linear-gradient" x1="61.23" y1="674.99" x2="840.47" y2="225.1" gradientUnits="userSpaceOnUse">
      <stop offset="0" stop-color="#9945ff"/>
      <stop offset=".87" stop-color="#25daa3"/>
      <stop offset="1" stop-color="#14f195"/>
    </linearGradient>
  </defs>
  <rect class="cls-1" x="166.16" y="129.92" width="583.55" height="613.16"/>
  <path class="cls-2" d="M460.12,0l39.95,2.89c210.7,22.11,379.93,193.94,398.49,405l1.44,21.24v41.04l-1.44,21.24c-18.52,210.15-186.14,381.76-395.69,405.63l-37.71,2.97h-28.8c-.75-1.19-2.73-.72-3.95-.73-35.71-.38-74.89-7.6-109.08-17.63C142.42,828.58,13.41,666.22,1.52,477.71c-.4-6.33.71-12.93-1.45-19.07.17-5.5-.23-11.07,0-16.56,3.48-82.36,25.75-161.32,69.54-231.06C151,81.41,289.17,5.24,442.12,0h18ZM253.49,727.2h386.97c4.12,0,10.92-6.15,12.23-10.09l22.52-76.84c1.09-5.57-1.15-12.16-6.06-15.19-.91-.56-4.91-2.28-5.64-2.28h-251.62l46.22-156.81,73.3-21.38,15.12-51.84-71.3,20.14,75.63-258.44c1.37-8.09-3.22-14.83-11.18-16.23-32.35,2.08-68.16-2.77-100.1-.02-6.16.53-10.58,3.37-13.9,8.42l-91.67,310.08c-.87,1.46-4.68,2.22-6.53,2.83-21.76,7.27-44.25,12.54-65.9,20.14-4.12,16.67-11.76,32.6-15.96,49.2-.26,1.01-.09,1.26.94.94l70.3-21.14-63.36,218.51Z"/>
</svg>